<?xml version="1.0" encoding="UTF-8" standalone="no"?>
<svg
   xmlns:dc="http://purl.org/dc/elements/1.1/"
   xmlns:cc="http://creativecommons.org/ns#"
   xmlns:rdf="http://www.w3.org/1999/02/22-rdf-syntax-ns#"
   xmlns:svg="http://www.w3.org/2000/svg"
   xmlns="http://www.w3.org/2000/svg"
   version="1.1"
   id="Layer_1"
   x="0px"
   y="0px"
   width="1200"
   height="1200"
   viewBox="0 0 1200 1200"
   enable-background="new 0 0 864 864"
   xml:space="preserve"><metadata
   id="metadata47"><rdf:RDF><cc:Work
       rdf:about=""><dc:format>image/svg+xml</dc:format><dc:type
         rdf:resource="http://purl.org/dc/dcmitype/StillImage" /><dc:title></dc:title></cc:Work></rdf:RDF></metadata><defs
   id="defs45" />



















<g
   id="g123"
   transform="matrix(3.4594779,0,0,3.4594779,49.999978,64.065829)"><path
     fill="#a97c50"
     d="m 37.134945,192.30476 c -53.850196,27.27692 -56.526458,-115.936897 41.653087,-68.98992 30.101898,14.39415 40.336088,52.53932 58.296208,78.19504 17.59089,25.12863 24.11352,20.07635 18.83444,52.28675 -2.78794,17.01164 1.48804,33.58104 -17.50939,31.72924 -31.15731,-3.03876 -71.444094,-7.23052 -85.159429,-40.0389 -8.044882,-19.24778 5.994422,-66.13785 -11.722225,-75.88702 -22.848831,-12.5733 -37.8550095,22.33745 -4.392691,22.70481 z"
     id="path2"
     style="stroke-width:1.00219" /><path
     fill="#7f5d3c"
     d="M 154.23415,240.54797 C 134.12295,232.27924 122.74783,200.7227 113.55397,183.26883 103.5351,164.24866 92.311904,137.6845 71.972319,127.35234 51.436543,116.91335 23.178847,119.19741 10.379075,140.05342 c -13.3672197,21.77741 -4.6764139,44.73079 12.912457,52.7809 2.421715,0.56203 4.187443,0.56602 6.684616,0.48516 -19.525639,-3.73056 -27.1107261,-32.1555 -4.044575,-37.31659 24.274493,-5.42863 33.045788,31.83405 36.230136,48.16686 3.41173,17.5028 1.172122,37.18782 15.21545,50.61265 17.695519,16.91481 45.044691,14.31629 65.498971,26.03007 -19.45118,-17.41594 -64.595481,-16.42664 -68.07462,-48.61609 -2.788946,-25.80845 -5.597008,-78.61531 -40.138887,-83.40305 34.946336,-1.53235 43.135092,24.39789 51.797726,51.55203 10.091316,31.6344 27.527261,57.72537 61.821631,65.77847 -36.7181,-13.42982 -48.507735,-43.19845 -57.678457,-78.12616 -4.341378,-16.53846 -10.134578,-33.94442 -26.832032,-41.65311 -14.634923,-6.75534 -33.799367,-10.61069 -47.685742,0.02 9.203924,-15.77078 28.498157,-18.35632 44.847496,-13.8441 18.117081,4.99837 28.550474,22.94839 37.772508,37.89958 14.942797,24.2232 30.568737,58.77357 55.528397,70.12797 -5.19457,-2.13631 0.46381,0.21163 0,0 z"
     id="path4"
     style="stroke-width:1.00219" /></g><path
   fill="#a97c50"
   d="m 1003.2551,991.29301 c 19.9023,-35.71285 31.3048,-76.89949 31.3048,-120.79369 0,-136.35868 -109.56663,-246.8954 -244.72982,-246.8954 -135.16315,0 -244.7298,110.53672 -244.7298,246.8954 0,45.05115 12.0221,87.24966 32.90932,123.6014 -22.52659,13.90038 -37.57335,38.61378 -37.57335,66.87038 0,43.5006 35.54416,78.7644 79.38267,78.7644 31.04718,0 57.86191,-17.72 70.91078,-43.4936 30.30582,13.5655 63.81381,21.1563 99.10387,21.1563 37.34365,0 72.71377,-8.4715 104.37702,-23.5599 12.56161,27.0652 40.07594,45.8972 72.0803,45.8972 43.84191,0 79.38611,-35.2638 79.38611,-78.7644 0,-30.2459 -17.2117,-56.4822 -42.4219,-69.67809 z"
   id="path6"
   style="stroke-width:3.46705" /><ellipse
   fill="#ba9673"
   cx="790.11066"
   cy="860.60907"
   rx="174.06961"
   ry="175.61481"
   id="ellipse10"
   style="stroke-width:3.46705" /><path
   fill="#a97c50"
   d="m 1080.1055,253.12398 c 28.6038,-49.01923 27.49,-180.135467 -0.6717,-188.606945 -28.8614,-8.67869 -83.1139,44.557285 -120.78124,87.056265 -34.23892,-17.85814 -71.8088,-30.69486 -111.59236,-37.63643 -12.15435,-33.550923 -45.74936,-70.144393 -41.06792,-56.696397 3.58853,10.326017 3.07688,31.813803 1.5106,51.868377 -0.0557,-0.003 -0.10094,-0.0104 -0.15663,-0.0173 C 786.1005,73.769008 734.0895,39.088786 743.38626,53.2413 c 6.68628,10.18097 12.02208,33.253919 15.86469,55.36334 -0.80054,0.038 -1.61501,0.0276 -2.41207,0.0725 -15.69415,-26.671513 -86.71633,-41.252264 -73.74055,-32.663366 8.40571,5.556709 20.30249,22.240652 30.15266,37.629526 -40.49012,6.85869 -78.73176,19.79211 -113.51715,37.92998 -37.67081,-42.49898 -91.92682,-95.734955 -120.78817,-87.056265 -28.16175,8.474931 -29.27555,139.594625 -0.66828,188.613855 -43.93247,57.33184 -69.89098,127.65927 -69.89098,203.7299 0,192.67173 166.01892,348.86396 370.81201,348.86396 C 983.98456,805.72473 1150,649.5325 1150,456.86077 c 0,-76.07063 -25.9585,-146.40497 -69.8945,-203.73681 z"
   id="path8"
   style="stroke-width:3.46705" /><path
   fill="#ba9673"
   d="M 1081.463,472.28765 C 1034.9583,387.56596 932.04317,445.81298 898.10706,477.58534 864.17792,509.3577 816.3924,606.53278 816.3924,606.53278 h -31.83381 -32.20972 c 0,0 -47.41309,-97.17508 -81.34572,-128.94744 -33.93611,-31.77236 -136.85475,-90.01938 -183.35592,-5.29769 -46.50465,84.71823 -13.63709,154.68995 10.36879,184.99802 79.04154,99.77902 222.28672,127.31046 286.54257,127.43134 64.24888,-0.12088 207.49058,-27.65577 286.53911,-127.43134 24.0024,-30.30807 56.8699,-100.27979 10.3653,-184.99802 z"
   id="path12"
   style="stroke-width:3.46705" /><ellipse
   fill="#d1c6c6"
   cx="987.16724"
   cy="525.70868"
   rx="37.357563"
   ry="49.644314"
   id="ellipse14"
   style="stroke-width:3.46705" /><path
   d="m 987.16715,468.78433 c -25.05007,0 -45.363,25.48696 -45.363,56.92778 0,31.44082 20.31293,56.92087 45.363,56.92087 25.05705,0 45.36305,-25.4835 45.36305,-56.92087 0,-31.44082 -20.306,-56.92778 -45.36305,-56.92778 z m 10.01724,46.74336 c -6.20943,0 -11.2459,-6.61004 -11.2459,-14.76379 0,-8.15721 5.03647,-14.76379 11.2459,-14.76379 6.21991,0 11.25981,6.60658 11.25981,14.76379 0,8.15375 -5.0399,14.76379 -11.25981,14.76379 z"
   id="path18"
   style="stroke-width:3.46705" /><ellipse
   fill="#d1c6c6"
   cx="573.32922"
   cy="522.19824"
   rx="37.357563"
   ry="49.644314"
   id="ellipse16"
   style="stroke-width:3.46705" /><path
   d="m 573.32748,465.27392 c -25.05007,0 -45.363,25.48696 -45.363,56.92778 0,31.44082 20.31293,56.92087 45.363,56.92087 25.05703,0 45.36649,-25.4835 45.36649,-56.92087 0.003,-31.44082 -20.30598,-56.92778 -45.36649,-56.92778 z m 11.25287,46.74336 c -6.21292,0 -11.24939,-6.61004 -11.24939,-14.76379 0,-8.15721 5.03647,-14.76379 11.24939,-14.76379 6.2164,0 11.25634,6.60658 11.25634,14.76379 0,8.15375 -5.03994,14.76379 -11.25634,14.76379 z"
   id="path20"
   style="stroke-width:3.46705" /><path
   d="m 735.24834,702.5956 c 8.39179,24.06409 31.37435,41.36968 58.48496,41.36968 27.10363,0 50.08972,-17.30905 58.48497,-41.36968 z"
   id="path22"
   style="stroke-width:3.46705" /><ellipse
   fill="#a97c50"
   cx="577.91803"
   cy="867.32538"
   id="circle24"
   rx="79.38961"
   ry="78.771278"
   style="stroke-width:3.46705" /><ellipse
   fill="#a97c50"
   cx="1002.3685"
   cy="874.34607"
   id="circle26"
   rx="79.386124"
   ry="78.76783"
   style="stroke-width:3.46705" /><path
   fill="#7f5d3c"
   d="m 978.01443,183.69691 c 0,0 69.31317,-74.94823 93.84117,-64.95376 18.0714,7.36636 4.5039,112.47416 -23.5917,109.80804 z"
   id="path28"
   style="stroke-width:3.46705" /><path
   fill="#7f5d3c"
   d="m 583.76209,184.91234 c 0,0 -74.63508,-69.73688 -98.366,-57.99146 -17.4797,8.65106 3.77647,112.49832 31.6006,107.805 z"
   id="path30"
   style="stroke-width:3.46705" /><path
   fill="#1f262d"
   d="m 737.48663,607.03699 c 0,-24.38529 27.60833,-14.53585 56.74465,0 29.83245,-16.74265 56.73769,-24.38529 56.73769,0 0,24.39219 -25.40509,44.16013 -56.73769,44.16013 -31.33956,0 -56.74465,-19.76794 -56.74465,-44.16013 z"
   id="path32"
   style="stroke-width:3.46705" /><path
   d="m 794.23128,607.03699 c -31.85469,-15.89309 -62.04565,-26.66461 -62.04565,0 0,26.66806 27.7754,48.28017 62.04565,48.28017 34.26329,0 62.03868,-21.61556 62.03868,-48.28017 0,-26.66461 -29.41825,-18.3071 -62.03868,0 z m 55.51947,4.95925 c -12.17523,-9.60078 -33.35832,-5.46346 -33.35832,-5.46346 0,0 24.17991,-14.09726 29.68626,-8.60617 5.0852,5.06976 5.00862,8.27463 3.67206,14.06963 z"
   id="path34"
   style="stroke-width:3.46705" /><path
   fill="#7f5d3c"
   d="m 936.33569,937.26851 c 0,65.16789 -71.34589,168.10339 -151.17753,168.10339 -79.83513,0 -137.9198,-102.9355 -137.9198,-168.10339 0,-65.17134 64.71178,-117.99978 144.54692,-117.99978 79.83513,0 144.55041,52.82844 144.55041,117.99978 z"
   id="path36"
   style="stroke-width:3.46705" /><path
   fill="#553e28"
   d="m 891.49858,814.29478 c -22.43264,-20.09947 -53.09,-32.6461 -86.31606,-35.32948 l -8.22124,-0.66653 -0.0452,0.0932 -6.50878,0.0484 c -73.2811,0.51803 -132.90075,48.79475 -132.90075,107.6047 0,3.51568 0.19839,7.24548 0.58474,11.16867 37.30188,-20.06839 84.05365,-30.99877 133.52031,-30.99877 49.40749,0 96.14186,10.90966 133.4333,30.94697 0.449,-3.91629 0.67176,-7.63227 0.67176,-11.12033 0.003,-26.49538 -12.15435,-51.97543 -34.21804,-71.74682 z"
   id="path38"
   style="stroke-width:3.46705" /><path
   fill="#2a1f14"
   d="m 806.51489,778.95144 c 7.09003,-10.10499 18.79538,-16.7392 32.03916,-16.7392 3.84261,0 6.96126,-3.09435 6.96126,-6.90704 0,-3.81268 -3.11865,-6.90703 -6.96126,-6.90703 -20.99862,0 -39.13616,12.27725 -47.73679,29.9938 -79.24342,0.56637 -143.26954,53.15308 -143.26954,117.97215 0,8.48529 1.04419,17.93066 2.99334,27.93205 35.88525,-23.05913 86.02716,-37.40159 141.55359,-37.40159 55.335,0 105.33072,14.2423 141.19161,37.15984 2.18235,-9.90814 3.35881,-19.27062 3.35881,-27.6903 0.003,-61.19978 -57.06835,-111.50371 -130.13018,-117.41268 z m 97.58632,73.44595 c 0,0 -45.49875,-49.44055 -74.83347,-58.95154 0,0 48.85059,14.03855 70.5697,35.98565 3.8809,3.91974 6.8986,8.09505 8.61455,12.48447 11.31204,28.96465 -4.35078,10.48142 -4.35078,10.48142 z"
   id="path40"
   style="stroke-width:3.46705" />
</svg>
